/* XPM */
static char *_ddc37dcffee4142efedd6a85f1384e02ebYC2qGpKNRZO1x[] = {
/* columns rows colors chars-per-pixel */
"64 64 168 2 ",
"   c #54A34B",
".  c #A37B55",
"X  c #AE835B",
"o  c #478A3F",
"O  c #997450",
"+  c #9E7752",
"@  c #498E41",
"#  c #B2875D",
"$  c #488C40",
"%  c #52A14A",
"&  c #46873E",
"*  c white",
"=  c #509D48",
"-  c #96714E",
";  c #A97F58",
":  c #603D36",
">  c #8E6B4A",
",  c #9C7652",
"<  c #6D453D",
"1  c #9B7551",
"2  c #A77E56",
"3  c #519F49",
"4  c #4A9042",
"5  c #44833C",
"6  c #B0855C",
"7  c #623F37",
"8  c #67423A",
"9  c #A47C56",
"0  c #B2855C",
"q  c #5D3B34",
"w  c #4E9845",
"e  c #AC825B",
"r  c #F5EF0D",
"t  c #916E4C",
"y  c #A07954",
"u  c #6B443C",
"i  c #AB8159",
"p  c #4D9544",
"a  c #4B9143",
"s  c #896847",
"d  c #946F4D",
"f  c #69443B",
"g  c #B1865D",
"h  c #509B47",
"j  c #6F463F",
"k  c #704840",
"l  c #97724F",
"z  c #417F3A",
"x  c #AF845B",
"c  c #583832",
"v  c gray89",
"b  c #407C39",
"n  c #816144",
"m  c #644038",
"M  c #856546",
"N  c gray99",
"B  c #4F9946",
"V  c #ECEBEB",
"C  c #F0E90D",
"Z  c #3F7A38",
"A  c #3E7636",
"S  c #575438",
"D  c #AD835A",
"F  c #D60029",
"G  c #F0EFEF",
"H  c #7E5B43",
"J  c #D00028",
"K  c #A48346",
"L  c #70463F",
"P  c #DAD9D8",
"I  c #74523F",
"U  c #1B191A",
"Y  c #DFDFE0",
"T  c #E9E30D",
"R  c #578943",
"E  c #B30123",
"W  c #DAD30C",
"Q  c #E0D90E",
"!  c #C2B5A8",
"~  c #F6F6F6",
"^  c #787948",
"/  c #BC0124",
"(  c #DFDEDC",
")  c gray81",
"_  c #C90226",
"`  c #A6805C",
"'  c #D4CE0C",
"]  c #073C8B",
"[  c #847B4C",
"{  c #E2DC0E",
"}  c #4D7F3F",
"|  c #8B8610",
" . c #A98A6C",
".. c #53352F",
"X. c #C3C4C5",
"o. c #D2CBC4",
"O. c #49783B",
"+. c #668346",
"@. c #CEC80C",
"#. c #1D1C1C",
"$. c #4C4E33",
"%. c #AA9681",
"&. c #927439",
"*. c #6C4C3A",
"=. c #CAC112",
"-. c #C30125",
";. c #604939",
":. c #4F6E3B",
">. c #56613B",
",. c #201F1C",
"<. c #997C3E",
"1. c #C4BA14",
"2. c #D7D3CF",
"3. c #71503D",
"4. c #6E6C41",
"5. c #9E8268",
"6. c #B7B011",
"7. c #B09F8E",
"8. c #B3A89E",
"9. c #4A5F36",
"0. c #847F0F",
"q. c #5F7841",
"w. c #5E713E",
"e. c #AC9237",
"r. c #B9A628",
"t. c #BFBBB7",
"y. c #93775D",
"u. c #A5AEBB",
"i. c #D0AB10",
"p. c #7C780F",
"a. c #9D5D47",
"s. c #8E7551",
"d. c #A90421",
"f. c #28201A",
"g. c #513D30",
"h. c #A57553",
"j. c #A0001F",
"k. c #A89E14",
"l. c #A38A30",
"z. c #AE9A2D",
"x. c #8498B4",
"c. c #6E493D",
"v. c #426D36",
"b. c #B5102A",
"n. c #9C4026",
"m. c #C47D14",
"M. c #C87716",
"N. c #9E960C",
"B. c #52111B",
"V. c #7A081F",
"C. c #526F97",
"Z. c #345C94",
"A. c #BF0D2A",
"S. c #A21428",
"D. c #A7433D",
"F. c #DFDEC0",
"G. c #976F10",
"H. c #BB9D0E",
"J. c #8995A8",
"K. c #B96D15",
"L. c #7B91B0",
"P. c #625C3B",
"I. c #C30043",
"U. c #3E443A",
"Y. c #41CA4B",
"T. c #B9A355",
"R. c #547B5B",
"E. c #A3833F",
/* pixels */
"b @ & b @ o Z $ $ Z o @ b 5 @ 5 z @ & b @ o Z $ $ w.l 1 s t 1 > > 1 t s 1 l w.$ $ Z o @ b & @ z 5 @ 5 b @ o Z $ $ Z o @ b & @ z ",
"a   = @   % $ %   @ 3   a B   p p   h 4   % $ % % +.x # + ; # . . # ; + # x +.% % $ %   4 h   p p   B a   3 @   % $ %   @ =   a ",
"a   = @   % $ %   @ 3   a B   p p   h @   3 $ % % +.x # + ; # . . # ; + # x +.% % $ 3   @ h   p p   B a   3 @   % $ %   @ =   a ",
"z @ & b @ $ Z $ @ Z o @ z 5 @ 5 z @ & O.R R O.R R w.l 1 s d 1 > > 1 d s 1 l w.R R O.R R O.& @ z 5 @ 5 z @ o Z @ $ Z $ @ b & @ z ",
"& w a 5 w p 5 p w 5 p w & @ w $ o w a ^ 9 y > . 9 > y 2 t + 2 l l 2 + t 2 y > 9 . > y 9 ^ a w o $ w @ & w p 5 w p 5 p w 5 a w & ",
"4   = @   % $ % % @ 3   a B   p p   h [ # X O 6 6 O D # + ; # . . # ; + # D O 6 6 O X # [ h   p p   B a   3 @ % % $ %   @ =   4 ",
"4 % h @ % 3 $ % % $ = % 4 w % p a % B [ 0 D O x x O e 6 , 2 g y y g 2 , 6 e O x x O D 0 [ B % a p % w 4 % = $ % % $ 3 % @ h % 4 ",
"Z o 5 A & & A & & A 5 o O.q.+.q.w.+.q.n - t n d d n t - M > - s s - > M - t n d d n t - n q.+.w.q.+.q.O.o 5 A & & A & & A 5 o Z ",
"@ 3 w o 3 = & = 3 o B 3 R . x y + x 9 O D i - e e - ; D O 9 X + + X 9 O D ; - e e - i D O 9 x + y x . R 3 B o 3 = & = 3 o w 3 @ ",
"4   h @ % 3 $ % % $ =   R 9 # . y # ; , g X O 6 6 O D g , ; # . . # ; , g D O 6 6 O X g , ; # y . # 9 R   = $ % % $ 3 % @ h   4 ",
"$ 3 w o = h & h = & B = R y D + , e 9 l e ; d i i - ; e l . e + + e . l e ; - i i d 2 i - . i 1 + D y R = B & = h & h = o w 3 $ ",
"Z o 5 A o & A & o :.^ ^ 4.> l s s l > M - d n - - n t - M > l s s l > M - t n - d y.! ! 7.8.! 7.> - > 4.^ ^ :.o & A & o A 5 o b ",
"4   h @ % 3 $ % % +.X 0 + 2 # . y g ; , g D O 6 6 O D g , ; # . . # ; , g D O 6 D 7.* * v ~ * ( ` g 2 + 0 X +.% % $ 3 % @ h   4 ",
"a   = @   % $ % % +.D # + 2 # 9 y # ; , g X O 6 6 O D # + ; # . . # ; + # D O 6 x 7.* * v ~ * ( e 0 2 + # D +.% % $ %   @ =   4 ",
"5 p 4 5 p p 5 p p q.y 9 t O 9 l - 9 , d ` ` t ` ` t y 9 t 1 9 - - 9 1 t 9 y t ` 9 %.V V ) v G o.` ` y t 9 y q.p p 5 p p 5 4 p & ",
"z 4 o b 4 $ w.s.s.M l , s d + t > , - 8.2.o.t.2.2.%.l , s d + > > + d s , l %.2.2.t.( v X.P v ) X.2.X.y.1 l M s.s.w.$ 4 b o 4 z ",
"a   = @   % ^ 0 # 1 D # + 2 # 9 . # i o.* * Y * * ! D # + ; # . . # ; + # D ! * * Y N * v ~ * V G * G  .6 D 1 # 0 ^ %   @ =   a ",
"a   = @   % ^ 0 g 1 D # + 2 # 9 y 0 i o.* N ( * * ! i 6 , ; # . . # ; + # D ! * * ( N * v ~ * V G * G  .6 D 1 g 0 ^ %   @ =   a ",
"z @ & O.R R 4.1 1 M l 1 s t , t y. .5.! v ( X.Y v 8.5. .y.d , > > , d s 1 - 7.v Y X.( Y X.X.X.u.) v ) y.1 l M 1 1 4.R R O.& @ z ",
"& w a ^ 9 y > . 9 > y 9 d 1 9 y o.V Y ) G V ) V G ) v V t.+ 9 l l 2 , t 9 y 8.G V ) V G u.] ] ] ) G ( 5.9 y > 9 . > y 9 ^ a w & ",
"4   = [ # x O 6 g O e # + 2 # e ( * ~ v * N ( * * Y N * o.i # . . # ; + # i ! * * ( N * u.] ] ] v * G  .6 e O g 6 O x # [ =   4 ",
"4 % h [ # x O x 6 O i g , 9 x ` ( * ~ v * * ( * * ( N * o.; g y y g 2 , 6 i ! * * ( N * u.] ] ] Y * G  .x i O 6 x l X 0 [ h % 4 ",
"Z o 5 P.H H H d - n t - > %.%.%.t.P ) J.x.x.u.P P t.2.P 8.t - s s - > M - t 5.! ! 8.2.P u.C.C.C.7.! 8.s.d t n - d n d - 4.5 o Z ",
"$ 3 w S u f H e e - ; i  .V N V v N V Z.] ] L.N ~ P ~ N o.2 D + + D 9 O D ; d i 2 7.~ N ( G * P ` i y O D ; - e i - i X [ w 3 @ ",
"4   h S L < H 6 6 O e 6  .G * V V * ~ Z.] ] x.* * ( N * o.i # . . # ; , g D O 6 D 7.N * v ~ * ( ` g 2 + g e O 6 x O X 0 [ h   4 ",
"$ 3 w S < u H e e - 2 i  .V N v v N V Z.] ] L.N ~ P ~ N o.9 D + + D . O e ; - i ; 7.~ N ( G N P ` D . O D 2 - e i d ; D [ w = $ ",
"$.S S g.q q *.- - n t d y.X.P X.X.P ) J.x.x.u.P P t.2.P 8.t - s s l > M - t n - d s.%.%.5.%.%.5.> - > M - t n - d n d - n ^ ^ 4.",
"m L u 7 j < H 6 6 O e x  .G * V V * ~ v * * ( * * ( N * o.i g . . g 2 , g e O 6 6 l i x O 2 x + . g 2 + g e O 6 x O X 6 1 i 0 + ",
"m k < 7 k < H g g O e 6  .G * V V * ~ v * N ( * * Y N * o.i # . . # ; + # D O 6 6 O X g , ; # y 9 # 2 + # e O g 6 O x g 1 i # + ",
"q 8 m q 8 m I 9 9 > y . 5.P V P P G v ) G V ) V V ) v V t.+ 9 l l 9 , t 9 y > . . > . 2 t + 2 l O 2 + d 2 . > 9 . > . 9 t + 9 d ",
"c 7 q c 7 : 3.1 1 M l , > 5. .5.X.v P X.v ( X.Y v 8.5. .y.d , > > , d s , l M 1 O <.=.=.6.1.=.6.6.=.1.6.=.1.<.1 O M O , s - , > ",
"m k < 7 k < H g g 1 D # + 2 0 e ( * ~ v * N ( * * ! i 6 , ; # . . # ; + # X O g 6 z.C r W T r Q { r T W r C e.6 6 O x # , i # + ",
"m k < 7 k < H # # 1 D # + 2 # e ( * ~ v * * Y * * ! i g , ; # . . # ; , g e O 6 6 z.C r W T r Q { r T W r C e.6 6 O x # , i # + ",
"c 7 q c 7 : *.t t n l , s d , l ! 2.o.t.2.o.! F.F.%.E.K &.<.K <.<.K <.&.K K &.K K l.i.i.H.i.i.H.k.6.6.6.W @.l.K K s O , s - , > ",
"q 8 m q 8 8 c f f *.y 9 t 1 9 l O ` y d ` 9 z.{ { 1.W Q =.' Q @.@.Q ' =.Q W 1.Q Q K.-._ E / _ d.f.f.f.k.{ W 1.Q Q z.y 9 t + 9 d ",
"m k < 7 k j : j j I D # + 2 # 9 y # ; , g e r.r r ' C r W T r Q Q r T W r C ' r r M.J F / _ F E f.,.f.6.r C ' r r r.X g 1 i # + ",
"m L u 7 j j : j j I e g + 2 g . y g ; 1 6 e r.C C ' C r W T r { { r T W r C ' r r M.J F / _ F E f.,.,.6.r T ' r r r.e 6 1 i 0 + ",
"$.S S g.q q ..q q m t - M > l s s l > &.e.l.k.@.@.N.| | p.0.| 0.0.| 0.p.| | G.m.m.n.E E j.d.E j.B.B.B.N.@.=.k.r.r.&.d - n ^ ^ 4.",
"$ 3 w S < u q < u 3.; D O . D + , D 9 1.C T @.T C | U #.U U #.U U #.U U #.#.V.J J E _ J E _ J / -.J _ i.C T e.i i d ; D [ w = $ ",
"4   h S L j : j j I e g + 2 # . y # ; 1.r C ' C r | #.,.#.,.,.#.#.,.,.#.,.,.V.F F / J F / _ F -.-.F _ i.r C e.6 x O X 0 [ h   4 ",
"$ 3 w S < u q < u 3.; D O . D + , D 9 1.C T @.T C | U #.U U #.U U #.U U #.#.V.J J E _ J E _ J / -.J -.i.C T e.i i - i x [ w 3 @ ",
"Z o 5 $.q q ..q q m t - M > - s s - > &.e.l.k.@.@.N.0.| p.0.| p.p.| 0.p.| 0.G.m.m.n.E E j.d.E j.d.E d.&.e.l.s - - I 3.I S 5 o Z ",
"4 % h S L j : j j I e g + 2 g . y g ; 1 6 e r.C C ' C r W T r { { r T W r C ' r r M.J F / _ F -.-.F _ a.6 i O 6 6 H u < S h % 4 ",
"4   = S L j : j j I D # + 2 # 9 y # ; , # e r.r r ' C r W T r Q Q r T W r C ' r r M.J F / _ F -.-.F _ a.# e O g g H < L S =   4 ",
"& w a S f 8 c 8 8 *.+ . t 1 2 l - 9 + t 9 y z.Q Q 1.W Q =.' { @.@.{ ' =.Q W 1.Q { K.-._ E / _ E E _ / a.2 y > . . I 8 f S a w & ",
"z @ & A } } $.: 7 c f u f t , > > , d s 1 O s K K &.K K &.<.K <.<.K <.&.K K &.K K n./ / j.E / d.a.a.a.s 1 l *.f u S } } A & @ z ",
"a   = @   % >.L L 7 < j c.2 # 9 . # i , # X O 6 6 O e g , ; # . . # ; , g e O 6 g D.J F / _ F A.h.# ; + # D I j j >.%   @ =   a ",
"a   = @   % >.L L 7 < L c.2 # 9 . # i , # X O 6 g O X # + ; # . . # ; + # X O g g D.J F / J F A.h.# ; + # X I j L >.%   @ =   a ",
"z 4 o b 4 @ $.7 7 ..: 7 7 s d s M d > s , O M 1 1 M O , s d + > > + d s , O M 1 , n.b.b.S.b.b.S.M d s M d > ;.;.;.9.@ 4 b o 4 z ",
"5 p 4 5 p p 9.8 8 c m 8 q m u 7 : u 8 n 9 y > . . > y 9 t 1 9 - - 9 1 t 9 y > . . > h.h.> 1 h.> 8 u m : u 8 :.p a z p p 5 4 p & ",
"a   = @   % >.j L 7 < k m f k 8 8 k u > # X O 6 6 O D # + ; # . . # ; + # D O 6 6 O X # , ; # 1 u k f m k < :.  % $ %   @ =   4 ",
"4   h @ % % >.j L : < L 7 f k 8 m k u > # X O g g O X # + ; # . . # ; , g D O 6 6 O X # , i # 1 u L f m L < :.  % $ 3 % @ h   4 ",
"Z o 5 A o & 9.S S g.q : ..c : c c : q *.n H 3.n n 3.H n I > l s s l > M - t n - - H H n I H n I c : c $.S S v.o & A & o A 5 o b ",
"$ 3 w o = h & = 3 :.f < : 8 < m 7 < 8 : < f q u u q f u c.. D + + e . l e ; - i e H f < : 8 < 7 m < 8 } 3 B o = h & h = o w 3 $ ",
"4   h @ % 3 $ %   :.< k m f k 8 8 k u 7 L < : j j 7 < j c.2 # . . # ; , g D O 6 g n < L 7 u k 8 8 k f }   = $ % % $ 3 % @ h   4 ",
"@ 3 w o 3 = & = 3 :.u < : 8 < m 7 j f : < u q < < : u < c.9 x + + x 9 O X i l D X H u < : f j 7 m < 8 } 3 B o 3 = & = 3 o w 3 @ ",
"Z o 5 A & & A & & v.:.:.9.9.:.9.g.: c ..q q ..q q ..q q c *.I *.*.I *.f I 3.;.I I q q q ..c : g.9.:.9.A o 5 A & & A & & A 5 o Z ",
"4 % h @ % 3 $ % % $ =   4 B   a ;.L u 7 j < : j j : < j 7 8 j m m j 8 7 j u : < < : < j 7 u L ;.a   B 4 % = $ % % $ 3 % @ h % 4 ",
"4   = @   % $ % % @ 3   a B   a ;.k u 7 k j 7 j j 7 < k 7 u k 8 8 k u 7 k < 7 j j 7 j k 7 u k ;.a   B a   3 @ % % $ %   @ =   4 ",
"& w a 5 w p 5 p w 5 p w & @ w & ;.f m q f 8 c 8 8 c 8 f q 7 f : : f 7 q f 8 c 8 8 c 8 f q m f ;.& w @ & w p 5 w p 5 p w 5 a w & ",
"z @ & b @ $ Z $ @ Z o @ z 5 @ 5 O.} O.v.} } $.: 7 ..: 7 c q 7 c c 7 q c 7 : ..7 : $.} } v.O.} O.5 @ 5 z @ o Z @ $ Z $ @ b & @ z ",
"a   = @   % $ %   @ 3   a B   p p   h 4   % >.L L 7 < k 7 u k 8 8 k u 7 k < 7 L L >.%   4 h   p p   B a   3 @   % $ %   @ =   a ",
"a   = @   % $ %   @ 3   a B   p p   h 4   % >.L L 7 < k 7 u k 8 8 k u 7 k < 7 L L >.%   4 h   p p   B a   3 @   % $ %   @ =   a ",
"b @ & b @ o Z $ $ Z o @ b 5 @ 5 z @ & b @ o $.: 7 ..: 7 c q 7 c c 7 q c 7 : ..7 : $.o @ b & @ z 5 @ 5 b @ o Z $ $ Z o @ b & @ b "
};
