/* XPM */
static char *_bce44fe3d804974b6482ab094a513431GJjclGhF41uPPZO[] = {
/* columns rows colors chars-per-pixel */
"50 50 47 1 ",
"  c #043A7C",
". c #043371",
"X c #043676",
"o c #031537",
"O c #043879",
"+ c #04306B",
"@ c #042557",
"# c #042F69",
"$ c black",
"% c #04326E",
"& c #000306",
"* c #052E67",
"= c #052C64",
"- c #05275B",
"; c #03183F",
": c #041A43",
"> c #05295E",
", c #042351",
"< c #052B61",
"1 c #031331",
"2 c #03183A",
"3 c #053573",
"4 c #073E7F",
"5 c #041C48",
"6 c #061D40",
"7 c #04204C",
"8 c #094485",
"9 c #072346",
"0 c #094C8F",
"q c #083369",
"w c #040D1B",
"e c #0F2B4E",
"r c #0A3970",
"t c #0A3C76",
"y c #194C88",
"u c #02070E",
"i c #0C3456",
"p c #125598",
"a c #1A4376",
"s c #4977A5",
"d c #336196",
"f c #B1C0D0",
"g c #33415B",
"h c #C4D5E5",
"j c #7C97B0",
"k c #F9FAFC",
"l c #183B60",
/* pixels */
"1111111111o2:5577777,@@@@@@@@@@-->=#%33XOO3.33X3XX",
"111111111o2;:557,,,,,@----@@-----<#%Xt 444 OXXXXXX",
"111o1111oo;::57,,,@,@@->>>------>*%t4488884 OOXXXX",
"11111111o2;:57,,@@@@@--><<>>>la><#3488000084 OOXXO",
"111o111o2;:577,@------><==<<>aa>=qt40pppp0884 OOOO",
"11oo111ge;:57,@-->>--><=====<>><*%t80shhd0084 OOO ",
"oooooooee:57,@@->>>>>><=========#rt80skks0084  O  ",
"ooooooo5g557,@-->>>>><==**#****#+3480shfp0084  O  ",
"oo2ooo2:55,l@-->><<<<==**##++++%.O480pppp0084     ",
"oooooo2o1o26;:,><<<=**#####@7777,@-<t00008ps4     ",
"ooooo22u$$$$$$w-<===*###+#*w$$$$$$$$o000088d4y4   ",
"oo1g9o2u$$$$$$&:==**######*w$$$$$$$$1888884 48    ",
"6ooe6o21111&$$$u,**##++###*,:5o$$277<4444444      ",
"goooo2;:576&$$$$1>#++++#**#++%,$&-.3O  44         ",
"ooooo2;:556&$$$$$2#+++######*#,$&@%%3OO    44     ",
"ooooo2;:7,6&&u$$$u,%++#####**#,$&@%%.XXOOOOy8     ",
"ooooo2;:776&&ou$$$1#+#######*#,$&@%%%3XXOO4 O    d",
"ooooo2;:552&&56&$$$2+######**#,$&@++%%.3XOy4O   Od",
"o22oo2;:552&&5>w$$$u@#**####*#,$&@+++%%.3XXOOOO   ",
"222222;::52&&5<-w$$$w=*#####*#,$&@+++%%%.3XXXOOOO ",
"666222;;ee2&&5><6&$$$o*#######,$&@+#+%%%.3XXXXXXOO",
"996622;:ei2&&5><>1$$$&,######+,$&@+#++%%..333333XX",
"e9966;;;:52&&:>><,w$$$w<+++##+,$&@+##+%%........33",
"iee966;;:52&&:-><=6&$$$;*+++++,$&@+++++%%%...%....",
"iie966;;::2&&:--<==2$$$&5++++%,$&@+++++%%%%%%.....",
"siie9622;:2&&:-->=*>w$$$w>+++%,$&@+#++++%%%%%.3.33",
"jiie9622;:2&&;@->=*+7&$$$1#+%%,$&@++++++%%+%%%.333",
"jiie9622;:2&&;@->=*#*1$$$u7#%%@$&@+++++++++%%.33XX",
"lie996;;;:2&&;@-><=*#<w$$$&,%%@$&@%++++++%%%..33XX",
"iee966;;;:2&&;@-><=*##,u$$&wqs@$&@%+++++%%%%..33XX",
"ee9966;;;:2&&;@--<<=###o$$$&9d@$&-%%%%%%%%....3atX",
"99966;;;;:2&&;,@-><=###=w$$$u@@$&-.%%%%%%.3333XtOX",
"9966;222;:6&&;,@-><=*###9&$$$w,$&>33.%%..3XXXXXOOO",
"6::6;22;;6gw&2,@-><=*####2$$$&w$&<OX33..3XOOXOOOOO",
"6:6::;;;::9u&2,@-><=*+###>1$$$$$&=4 O33.3XOOOOOOO ",
"::::::::552&&2,@-><=#++##q-w$$$$&q44 O333XOOOO  O ",
":;::::55776&&2,@-><*+++###+9&$$$&ay44 OXXOOOOO    ",
":::::5777,6&&;@-><=#+++###++1$$$ufhy44 OOOOO      ",
":::55771www$$www1>*#%++###+%@u$$uffy844 OOO      O",
":5577,7w$$$$$$$$u-*+%++*##++.9$$$ay8844          O",
"5557,@@999999:665>*+%%+##+++%q2&uq4dy44          O",
"557,@>=qqrrrq=<<><=+%%%+++++%.q,@X4y844          O",
"557@>=qrrrttrq<>><=#+%%%%+++%%.3XO   yy         OO",
"57,-<qrtsjytrq=>->=#++aa%%%+%%%.33XOOyy      OOOOO",
"77,-<qrahkjttq*<>>=*++tr%.%%%%%%%..3XOO     OOOOOO",
"7,@-<qrafkstrq*<<><*++%%.....%%%%%%.3XOO    OOOOOO",
",,@-<qrtyd4trq*<<><=#+%.333..%%+++%%.3XOOOO OOOOOO",
",,,@>=qrtrtrqq=<>><=*+%.3XXX..%++++%%.3XOOO  OXXXX",
",,@@->=qqrrqq*<<><=**#%.3XXX3.%++++++%%3XOO  OXXX3",
",,@@-->=*qq*==<<<<=*#+%3XXXX33.%%+++++%.XOO OOXX33"
};
