/* XPM */
static char *d66a552c50484e1bb34b0da2a421a605c72WufynLJCxqRON[] = {
/* columns rows colors chars-per-pixel */
"64 64 10 1 ",
"  c #452C1C",
". c #3F291A",
"X c #382618",
"o c #302115",
"O c #4B301E",
"+ c #251A10",
"@ c #533520",
"# c #5B3B24",
"$ c #66432A",
"% c #735034",
/* pixels */
"O#@###@#$$##@O@@@@#######$$$####@OO@##$$######@@###@O  OO@OOO @ ",
" @. .. O@@OO O X. O   O@O@OOO  O   .XXXXXX..  .. OOOO.XXoX.XXX .",
".OXX. @@@@O    ..  ...   OO  O OOOO XXXXXX..            ...ooXX.",
" @.X OO@@O OOOO    OO OO            O      OOOOOOOOOO       Xo .",
" @. ..  .  OO@   OO@OOO@O  ..     O##OOO   O@@@@@@OO ..... ... .",
".OoXX. .. OOO   OO@@O .O   .. ..  O@@O ..  OOOO     ....XX..XX  ",
"o.o+oXXXXX..XXXXXXXX.XoXXX....XoXXX.X.oooXXXXXXoooXXXX..XXXooo..",
"+o++oo++++++++++++++++++o+++o+o++++++++++++++++++oo+ooooooo++++o",
"X .X .Xo+++oo+ooooXXXo+oo++ooooooo+ooXo+ooooXooo. XXXXXX  ..XXXX",
"O# O@O X++oo.oo..o .XooXXo+oXXX.XXooX .oXX..XXo.@O.     ##  ....",
"O#.O@O o++Xo.XX..o O.Xoo.Xoo..  oXXoXO XXoX .XX@@  O@O .@#.....X",
"O#.O@O o+o.o  XX.o OXXXo.Xoo..  XXXo.O .XoX X.@@  O@   .@#XX O .",
"O# O@ .XoX.o  XX.oOO.XXo..ooX. OoXXo. ..X+X .@@.XO@..  X@#   O .",
"O# OO..XoX.o  XX.oOO.Xoo..ooX. OoXXo..X.Xoo @@O. O  ...+O#   OO ",
"O#.O ..ooX.oOOXX.o  ...o.X++XX  XXXo..X.XoX@O.. O . Xoo+O#   @@ ",
"O@.    ooX.oO@XX.o. . .X.X++XX  oX.o.XX.o.@OXXX O XXooooO#O..@@ ",
"O@O   .oooXoO@XXXo..X..X Xoo.X. oX.o..oX.@ Xoo. ..Xoo+oo #O  @O.",
"O@@O  .oooXoO@.X.o .XX.X..oX.XX.X. o. oo  Xo+X ...X++XXo #@O O .",
" O@OOO Xoo.oO@.X.o  XX.X..o..XX.. .o..X XoXooX.. .o+o..oO$@ X  .",
"O@@OO@OX+o.oO@.X.o  XX.X. X. X..XXXoo.O o.. .. O.+oXX..XO$@O. .X",
"@#O   OX+oXo O.X.o  .X.X. ...X. X..ooOO.X.  . O.o+X ...oO$O   .X",
"@# .   X+oXo. XXXo  XX.X. .X.X. XXXXO@ O   . O.++o.OXXXoO$@   .X",
"@# . . X+oo+. XXo+  XXXo. .X.XX.XXX.O    O..O.o+oX.O.XXo #O   XX",
"@@  .. X+oo+. XXo+  XXXo. .X.XoXX.O.. .  .. .ooo...O.XXoO$O  .XX",
"@#.   OX+oo+. Xo++ OoX.o.OXXXX..X@O.     ..Xo+XoX . ...XO$O  ...",
"@O.   O.+oo+. XXo+ OX..o.OXX.XX @O. ..OO  .o+o.o @..X..X@# .   .",
"#O.  . .+ooo.O..o+ O  .o  XXXoX@O. ... O Xo+oX.o.OX.X  X@$ .   .",
"#@....O.ooo+ @ .XoOO .XX O.Xo.@O. ... O .o+o.XXo. X.X..o@$O  OOX",
"@@.X. O.ooXo @ ..oO@.X.o O.XoOO. ..    Xo+X.XXXo. XXX.Xo@$O  O X",
"@@O.. O.ooXX.O ..oOOXX.o @..OO  ...X..X+oo. XXXo.OXX.XXo@$O   ..",
"@#@.o @.oo.X. XX.oOOXoXo O.@@  .. XX.Xo+XX. XX.o.@XXX.Xo@$..  O ",
"@#OXoX XooXX. XXXoOOXXXo.OOO  ...ooXXoooXX. ooXo.@.XX.Xo@$.. OO.",
"O@ XXoXXoX.X. XXoo  X..o.@.X... XoXXo+oXXo. o+oo.O.XX .o@$.. OO.",
"O@ .XoXooo.o. X..o .o.X.#OoX..  ...o+ooXXoX o+o+.O.XX..o@$X. OO.",
" O .Xo.Xoo.o. X..o  X. #@X    OOO.o+oXXoooX@.+++ #@O ..oO@o.   .",
" O Xoo.XoX.o..X .o O..##     OOOXo+o..XXooO%O+o+#%$$@OX+. X.   .",
"@@ Xoo.Xo..o..X .o O.@@OO... OO.o+ooX.. .o#%Oo oO$###OXo OX    X",
"@# XXX.XoX o. X. o. OO O.. XX .oooXoX.X..o#%O.$.. XO@ XoO#.O  .o",
"@@ X.X.Xo. o. X..oX  .  ...X..o+X..oX.XXXo#%O #.. .O@ Xo@$OO O.X",
"O@ ....Xo. o. ..X.O X  XXX. .oooX.Xo. XXXo$%#@$OX@#$@XXo@$OOOO .",
" O   O ooX o O.X.@O . .ooX .+oX..XXo. XXoo#%%%$O $%$ oXoO$@O   .",
"@@  O  oo..o OoX@O.@@ XoX.Xo+o. XX.X. Xo+o@$$$# #%%OXXXo.@@O  ..",
"#@ OO  XoXXo  oOO.OO XXoXXo+oo. XX oXO.o+o.  @# #%$@@ Xo #O   oX",
"##  @ .XoXXoX OO OO XXXoo+ooooX XX oX .ooo.  #$.@%%%%@XXO@    XX",
"## O@.XooX.oX@@OOO@.X.Xoo+oXXoX.XX.oo .oooX..O@XO$#@#OXXO@.  O.X",
"#$ OO XooXX.O@OOO@@ ..X++oX OX @O @. @O .X @@@ XO#OO  XXO#   O..",
"#$ O@.Xooo.@.X. @O   X+++o #$@#$$$$##%$#@@$%%%$@$%$##OXoO#    ..",
"#$ O ..XoXO XX.O@.X .++++X#$$@#%$$%##%%$#O#%%%%$$%#O#@XoO#.    .",
"@#   ..X.@.o...O XXXo++++X#@# @$###O@##OO.@$#$#@##O OOXo@$..    ",
" #    .o .oX.  ..Xo++oooo OOO.O@OO@  @O .X #@## X.oXO Xo@$XX   .",
" @OO...ooo.. @O..o+++oX.#%$$$$$%$$%$%%$#@O$%%%%$@@. $@Xo@$XX  .X",
".O  .  oo.. @@O X+ooo.@O$%$$$$%$$$%$%%%#@O$%$%%$@#  $#XoO#XXOO.X",
".O  .  X...O@O .++X..OOX@$@@@O##@##@#%$O  @$#$$@@#. #OXoO#XXOO.X",
".O  .  XX OO@@.+ooX  .Xo. XooXXXXoXo O.Xoo. X.Xo. ..XooXO#.. O X",
".O   O oXO@OO.o+ooo..XXo..XoooooooooX.ooooXXooo+X.Xo++oo @X. O.X",
" #@@###@@#@@ oo.OO OO O... ....X  .   OOO   OOOOOO...X O##@@@#@ ",
"O$$$%%$$###@.oX@$$$$$$$$######$#$$###$$$$$$#$$$%$$####$$$$$$$#$@",
" @.  OO. O XXooXX.  O##O  .  OOOOOO    OO OOOOOOOO ....  .XX....",
".OoXX.O .  .XoXooX  OOO .X.   O  ..   O@@@@@@O .O@O....  ..XXXX.",
"+oo++X.XXX.    XooX    .XooXX    . .   OOO O X...    .  .ooo++++",
"X XooX XooX      .   O.ooXXX OOOOO OOOOO  . OOOOO ... OO ..Xoooo",
"O@X.X O .XX. ......    ..     OO  . OOO .     O   ..     . X.XXX",
".O.oX     ...X..... .....XXXoX..XXXX.  ..X.. ...    ........oo.X",
"++++++++++++++++++++++++++++++++++++++++++++++++++++++++++++++++"
};
