/* XPM */
static char *b2e5c2b1929b4354bee977cae65df4b3mgnDjDBP9PApFZxK[] = {
/* columns rows colors chars-per-pixel */
"50 50 95 2 ",
"   c #000000",
".  c #040609",
"X  c #06090D",
"o  c #0B0C0D",
"O  c #050A10",
"+  c #0A0D13",
"@  c #080F1A",
"#  c #0B121B",
"$  c #121316",
"%  c #181215",
"&  c #12151A",
"*  c #1A1B1E",
"=  c #221B1F",
"-  c #0E1727",
";  c #0D1728",
":  c #0E1A2B",
">  c #151A24",
",  c #1B1D20",
"<  c #121C2A",
"1  c #1A1F29",
"2  c #1D2633",
"3  c #1E2837",
"4  c #14233A",
"5  c #19273C",
"6  c #232527",
"7  c #2F252C",
"8  c #25282F",
"9  c #242D3D",
"0  c #382532",
"q  c #2E3136",
"w  c #2A303B",
"e  c #323233",
"r  c #393638",
"t  c #3E393C",
"y  c #152641",
"u  c #152942",
"i  c #192940",
"p  c #1E314F",
"a  c #1F3251",
"s  c #1D355A",
"d  c #1D3B5E",
"f  c #2A3442",
"g  c #2E3A4E",
"h  c #3A3F46",
"j  c #233551",
"k  c #2A3B56",
"l  c #24395B",
"z  c #303D52",
"x  c #1E3962",
"c  c #4F3245",
"v  c #503246",
"b  c #3F4042",
"n  c #39475C",
"m  c #28436D",
"M  c #394964",
"N  c #284675",
"B  c #264A7C",
"V  c #2A487B",
"C  c #304C7A",
"Z  c #424449",
"A  c #4C494B",
"S  c #624F5B",
"D  c #485362",
"F  c #6E4E63",
"G  c #646970",
"H  c #7B787A",
"J  c #294C81",
"K  c #295082",
"L  c #385585",
"P  c #365A94",
"I  c #355FA3",
"U  c #3761A5",
"Y  c #647186",
"T  c #637592",
"R  c #5478B2",
"E  c #5D7DB2",
"W  c #5C7FB8",
"Q  c #7F8593",
"!  c #5F82B8",
"~  c #828385",
"^  c #9A8994",
"/  c #8695B4",
"(  c #A2A2A2",
")  c #A5A8B0",
"_  c #A4AAB4",
"`  c #A4AEBD",
"'  c #C1BBBF",
"]  c #9BA9C0",
"[  c #9BADC8",
"{  c #D8DEE5",
"}  c #E2E6EE",
"|  c #EBEBEC",
" . c #F1F1F1",
".. c #F9F8F9",
"X. c white",
/* pixels */
"                .                                                                                   ",
"                                                                                                    ",
"                                                                                                    ",
"                              .                                                                     ",
"                                                                                                    ",
"                                                  .                                                 ",
"                                                . X .                                               ",
"                                              . O @ O .                                             ",
"                                            . O # : # O .                                           ",
"                                          . O # : u : # X .                                     .   ",
"        .                               . O # : u d u : # O .                                       ",
"                                      . X @ - y x B d u : # X .                                     ",
"                                    . . + # < a V I K d u : @ X .                                   ",
"                                  . X + # > 3 k L R U J d y ; @ X .                                 ",
"                                . X + # > 2 f M T ] E U J s y ; @ X .                               ",
"                              . . + # > 3 g M Y ` { [ W U V s 4 ; @ X                               ",
"                            . o + # > 2 f n Y _ | X.} [ ! I N p 4 ; @ X .                           ",
"                          . . + # > 2 w h G ) | X.X.X.} [ E P m p 4 - @ . .                         ",
"                            . X + & , b X.X.X.X.X.X.X.X.X./ C l i < # O .                           ",
"                              . X o % t X.X.X.X.X.X.X.X.X.Q j 5 < # X .                             ",
"                                . . o r X...v F ^ ' ~ D z 9 2 < # X .                               ",
"                                  . . r X...0 c S H A e 8 1 > # O .                                 ",
"                                    . e X...= 7 r Z e 6 * & + X .                                   ",
"                                      e X...$ , 8 q 6 * $ + X .                                     ",
"                                      e X.X.X.X.X.X.X.X. .. .                                       ",
"                                      e X.X.X.X.X.X.X.X. ..                                         ",
"                .                     e X.... X + & o . .                                           ",
"                                      e X...  . X o X .                                             ",
"                                      e X...    . . .                                               ",
"                                      e X...                                                        ",
"    .                     .           e X...                                                        ",
"                                      e X.X.X.X.X.X.X.X.X.(                                         ",
"                                  .   e X.X.X.X.X.X.X.X.X.(                                         ",
"                                                                                                    ",
"                                                                                                    ",
"                                                                                                    ",
"                                                                                                    ",
"                                                                                                  . ",
"                                                                                                    ",
"                                                                                                    ",
"                                                                                                    ",
"                                                                                                    ",
"                                                                                                    ",
"                                                                                                    ",
"                                                                                                    ",
"            .                                                                                       ",
"                                                                                                    ",
".                                                                                                   ",
"                                                                                                    ",
"            .                                                                                       "
};
