/* XPM */
static char *_60b6394bf9b4a23d8ce960dde1d0f2dOEi4eOIxZf9dsZoM[] = {
/* columns rows colors chars-per-pixel */
"50 50 81 1 ",
"  c black",
". c #02150D",
"X c #031E14",
"o c #032116",
"O c #05261A",
"+ c #062B1E",
"@ c #063323",
"# c #0A3A2A",
"$ c #0A402D",
"% c #0D4130",
"& c #12523D",
"* c #145641",
"= c #135D44",
"- c #156147",
"; c #176249",
": c #1A634B",
"> c #15694C",
", c #18684D",
"< c #1E6B52",
"1 c #1D7256",
"2 c #1F7759",
"3 c #1D7D5D",
"4 c #217C5F",
"5 c #227F60",
"6 c #1F976C",
"7 c #1F9A6D",
"8 c #258465",
"9 c #228B67",
"0 c #288E6F",
"q c #23956E",
"w c #28906F",
"e c #21996E",
"r c #2B8E71",
"t c #328D77",
"y c #348E79",
"u c #269671",
"i c #2C9473",
"p c #259B72",
"a c #2B9B74",
"s c #299C74",
"d c #2B9F75",
"f c #2D9E76",
"g c #2F9F77",
"h c #2F9D78",
"j c #309376",
"k c #329576",
"l c #319676",
"z c #309A77",
"x c #34947A",
"c c #39937C",
"v c #339A7A",
"b c #309E78",
"n c #399B7D",
"m c #26A074",
"M c #27A674",
"N c #29A277",
"B c #2DA377",
"V c #2BA577",
"C c #2BA777",
"Z c #29A378",
"A c #2DA378",
"S c #2BA578",
"D c #2DA57A",
"F c #2CA879",
"G c #2FA87C",
"H c #30A177",
"J c #31A47A",
"K c #34A47B",
"L c #34A67C",
"P c #35A67D",
"I c #30A87B",
"U c #31A87C",
"Y c #3F9F81",
"T c #3DAB83",
"R c #43A284",
"E c #4BA589",
"W c #4DB18D",
"Q c #65B399",
"! c #72C1A4",
"~ c #B7DBCF",
"^ c #E3F1EB",
/* pixels */
"SSSFFCCMMCCDPPJABHJJbggasssusuaaaaazzzziillliiliii",
"SSSSSCCCCCDIPPJJJHBJbggasssuuusassasaaiilllliiiiii",
"DDSSSSCSFDDJJPJJJJBgbgaaassuqusssuuuuuilillliiw000",
"DDDDDDSSDFDJJPPKJJJggagassuquuuuuuuuuuiiillliiw000",
"DDGIDSSDDDDJJJJABgggggasspuqquuuuuuuwuiuiillji0000",
"ZDDUFDDSDDDDJDDBsssgsssssppqqquuuuuuuiiiiilljiw000",
"NNSDDDDSSDDCDDABssggsssssppuqqqquuuuiiiiilliii0000",
"NNSDDDSSSDDCCNBBssgggsppssssqqqqqqquuuuiiiiiii0000",
"NAADDDDSDDDDCNNBgssasspppssuuquqqqwwuiiiiwwwirr000",
"NAAJDTDDDDDDCNNBBgsssaspssuuuuuqqwqqwwiiww0wiiir00",
"NAJWWBNDDDDDDBBBBggggsssaauuuuuuqqqqqwuiiiwiiiirr0",
"AAJA^!PDCCDDCAABBgggggaassaiauuuuuqwwwuiiiiiiiiiir",
"JAA!PWAACCDCCCAAgggggaaappssauuuuuuuwwwqwiiiiiiir0",
"AAAAAPAANCCCCBBABggggaaappuubuuuuqqwuwwwwwuiiiiii0",
"gAAAAAAABCCDDBBBBgggagaaappuuuuquuqquwwwwwwwiiiiir",
"sssNZADADCNCCBAggssggaaasapuuuuqquuuiuuwiiiiiiirir",
"spssNAADBBNCNBNssgssa3&O.#&2wuuuuuiiiiiiuiiiiiirrr",
"ssssNANABCNNNNssssss=       *uuiiiiiiiiiuuiiiiirrr",
"pssNAANNNDNNNNNssss8 .1wsi8,:aaiiiiiuuiiiiuiiiiirr",
"ssssNZZNNCDNNNNsssa; 1aaaaaaaaaiiiiiiiiiiliiiiiirr",
"ssZZNNAAAADNmNNsspp- 5agbbzaaaiiiiiiiiilllxliiijii",
"pZsZNNNNBZNNNNmsspp1 &uabbzaaiiiaiaiiiiizllxlijijj",
"ppsssssNNNmmmmmssppq# X&48iaauiiaaiiiiiiiililijjjj",
"sspsssppmmmmmmssspepq,+   .:iuuiiiiiiiiaiiiljjjjjj",
"pppsmmmmmmmmssppppppppa94:O %uuiiiiiiiiailixxxxjjj",
"ppssmmmmNmmmssppspppppasaai# 4iiiiiiaahzzxxxxxjiij",
"pppmsspNNmpmsssppppppppaaia< <iiiizxzzzvvvxxxxiiir",
"spmssspNmmsspsssspppupppsai* <aiailxzzzvvnvxxjiiir",
"sssmspNNNpssspssssp>=39qq9:  8iaiiazzzzvnvxxxxiirr",
"ssssspNNNsssssssssp-        ;iiaiizzzzzvvvvxxxjiir",
"psppppmpssNBBssppspq3=$o.@*8aaaazzzzvzvvvvvccxxjir",
"7pssppmssNNNNBssssppppuusuaaaazzzvvvvvvnnncccxxxxj",
"ppp7pppppsssspssspppuuupauuaaaazzvvnnnnnnnccxxxxjt",
"pp77eppppppppsspsspupuuuasuuuaaazvvvvvnnnnccxxxjjj",
"ppeeppppppeeppsssppppussasussaazvvvvvvnnnnccxcxxxj",
"pppppseppppppssspppppuuuaaaaaazzzvvzzvvnvxxxxxxxxx",
"pppppp7eepspssssspspuuusaaazzzzzzzvzzzvvxxxxxxxxxx",
"7eppe7777eeeesppppspuuusaaaznvvvvvzzzzvvzxxxcccccc",
"e77pe7777eeeeeeepppequuaazznRnvnvvvzzzvvvcxxxxcccc",
"e7eeee77eeeeeeeeeeppepuaazznnnnnnvvEzvvvxxxxxxxccc",
"eee7e77peeeeeeeppppppppaaaaznnnnvEYQRRvzxxxxxxyyyy",
"77eeeeeeeeeeqeeeeepppppsaaaaznvnvzR~Rzzxxxxjjtyyyy",
"777eeeeeeeeeqqqqeqeeeeepssaazbvvzzEvQzllxxxjttyyyy",
"77e77eeee7qqqqeqqqeeeepppsaahazzaazzzxlijxxxxyyyyy",
"eeee6eeppqqqqqq6qqqeqppsssaaaaaaaaailzlljxxxyyyyyy",
"eeeqqeepqeppppqqqqqquppasaaaaaaaaaiiixllxxxxyyyyyy",
"eeqqqepeqeqppqqepququppssaaaaaaaaiiiiixxxxxyyyyyyt",
"qqqqqepeqqpepppppppuuupssaaaaaaaaiiiiiijxxxxyyyytt",
"66666qpepppppppuuuuuuusaaaaaasaiiiiiiiijjxxxyyyytr",
"e6666qeppssasaaasuuupsaaassssiiiiiaiiiiiijtyyyttrr"
};
