/* XPM */
static char *bdd37aab7759414ffd367b7306103892Fvbri2uUQpJXsDLY[] = {
/* columns rows colors chars-per-pixel */
"50 50 113 2 ",
"   c #000000",
".  c #02010A",
"X  c #040313",
"o  c #050519",
"O  c #090720",
"+  c #0B0924",
"@  c #0E0E2E",
"#  c #140D2F",
"$  c #130F31",
"%  c #0F1032",
"&  c #18143B",
"*  c #1A1642",
"=  c #171844",
"-  c #1B1B4A",
";  c #1F1F52",
":  c #201847",
">  c #221C4D",
",  c #261F56",
"<  c #232055",
"1  c #272158",
"2  c #2D235F",
"3  c #2B2562",
"4  c #2B2867",
"5  c #272A68",
"6  c #282A6B",
"7  c #312867",
"8  c #322A6E",
"9  c #2D2D71",
"0  c #332C71",
"q  c #382D76",
"w  c #333075",
"e  c #33337E",
"r  c #3B327C",
"t  c #363684",
"y  c #3D3584",
"u  c #34348C",
"i  c #3A348E",
"p  c #36398F",
"a  c #3B3A8B",
"s  c #3E3491",
"d  c #373A90",
"f  c #3C3C95",
"g  c #3F3F98",
"h  c #423587",
"j  c #43368A",
"k  c #42398B",
"l  c #433393",
"z  c #493496",
"x  c #433B96",
"c  c #4B3699",
"v  c #443E9A",
"b  c #4C3D9D",
"n  c #513A9E",
"m  c #543B9F",
"M  c #513C9F",
"N  c #4F3FA0",
"B  c #543BA0",
"V  c #513CA0",
"C  c #533CA0",
"Z  c #543DA1",
"A  c #583DA3",
"S  c #3D4097",
"D  c #3F4199",
"F  c #44429C",
"G  c #4A419E",
"H  c #50409F",
"J  c #4747A0",
"K  c #4B43A0",
"L  c #4F41A1",
"P  c #4A45A1",
"I  c #4F44A3",
"U  c #4F47A4",
"Y  c #4F49A4",
"T  c #4D4BA4",
"R  c #5240A1",
"E  c #5442A3",
"W  c #5045A3",
"Q  c #5343A4",
"!  c #5443A5",
"~  c #5245A4",
"^  c #5745A7",
"/  c #5840A4",
"(  c #5148A5",
")  c #5448A7",
"_  c #5746A8",
"`  c #5845A8",
"'  c #534BA8",
"]  c #5648A8",
"[  c #544CA9",
"{  c #5849A8",
"}  c #5B4CAC",
"|  c #5551AB",
" . c #5C51AE",
".. c #5A59AC",
"X. c #5E52B1",
"o. c #604EAF",
"O. c #614FB0",
"+. c #6352B3",
"@. c #6A53B6",
"#. c #6358B6",
"$. c #6A59B3",
"%. c #6D55B9",
"&. c #665AB8",
"*. c #6C5ABB",
"=. c #7356BC",
"-. c #7957BF",
";. c #715BBE",
":. c #7565B9",
">. c #745EC1",
",. c #795FC4",
"<. c #8060C9",
"1. c #8E84C5",
"2. c #968EC9",
/* pixels */
"l l l l z z c c c c c n n B n b c c c c c c c c c c b v b b b b b b b G b R R R R R Q Q W W ~ ^ ` { ",
"l l l l l z c c c c c n n m n b c c c c c b c c c c b b b b v v v b V V V R R L L L R ^ ^ ~ ~ ^ ` { ",
"l s s l l l l z c c b n n n n b b b b c c c c c c v v b b b b b b R R Z E E E R R Q ! ^ _ ^ ~ ) ) ] ",
"s s s s l l l z c c c b n n M n V b b c c c c c b b b v b b b b G R R V ! ! E ! ! ! ! ^ ` ^ ^ ~ ( ( ",
"s s s l l l z z z c c n b n n V B n b b c c b b b b b b b b b V b b V Z / ! E R ! ! ^ ^ ` ^ _ ^ ( ( ",
"l l l l l l l z c c c b b b n n M n m n b c c c c c c b b b V V b b R ! ! E ! R R R I W ~ ~ ^ ^ { ] ",
"l l l l l l z c c n n b n b M Z V n n n n c c v v v c b b b V V b V V E E E E ! R L I I I I U ( ] [ ",
"l l l l l l z c c n n b b V V M n n n n n n b c v c v b b b b N b V R R R R R R ! L K P I I I Y ( [ ",
"l s s l l z z c c c n n n Z Z V B n n n n m n b b b b b b b b N V N E E R R L L W I I P P I Y Y ( ( ",
"s i s l l z z c c c b B Z A Z Z B B B n m B n b b b V V M b N V R Z ! ! E E R L W I I I P P Y Y Y ' ",
"l s i i s l l z c c c n Z Z A A A A B B n n V b b b V V V V R Z E ! ! R R R R R L I I I I I Y Y Y ' ",
"s s i i i s l l l z c b M V Z Z Z Z B V V V n b b b b V V V V / ! E ! R R R L L L L I I I I Y T Y [ ",
"i i i i i s s s l x v c b V V V V V M b b b b b b b b b L L R R R L L R L G G G G K P P P J J J Y [ ",
"u i i i i i s l l x x v v b b b b b b b b b b b b b b b G G G L L G G G G G G G G G G G J J J T Y ' ",
"u u i i i s s l x x x v v v v b b b b b b b b G b b b b G G G G G G G G G G G G P P G P J J J Y Y T ",
"u u u i i s s l f f f x v v b b b N b b G G G b b b G G G G G G F G G G G K K G G P P Y Y J J Y T T ",
"u i u i p i s f f f g g v v v b G b N b b G G b G G K G F F G F F F F G F G P I I I Y Y ( ( Y Y Y ' ",
"u i i u p i i f f f g g v G G G G b L b G G G G G K K G G F F F F F F F F G F P U ( ( ( ( ( ' Y Y ' ",
"u u u u p i p f d f f g v v k   > G G G v v e     x G G G G F o o F D D D F F J I ~ ( ] [ ' ' [ [ [ ",
"u u u p p p p p d d f g v F F + X v G G G F 4     y G G K G a   ; F F F F F F F P Y ( ] ' ' ' [ [ [ ",
"u u u u u p p d d f f g g F G <   a G G v v * - O 4 G G K K w   9 F F F F F F F J Y ( ( ' ' ' ' [ [ ",
"p p u u p p d d f f g g F F F 0   0 v v b v . 8 , * G K K K 1   a F F F F F J J T T Y T ' [ [ [ ' Y ",
"p s i p p p f f f f g F F F S t   ; v v b y   h q   v L L L + X F F F F F P J Y ( ( Y T T ' ' ' T Y ",
"s s f f f f f f f g F F F S f f o o g v G 8 . b k   h R R x   > G F J P P Y Y ( ( ( Y T T T ' T T Y ",
"f x x f f f f f f g F F F g f f -   t v G > : R M X 8 R R r   0 I I I I U ( ( ( ' Y T ' T T ' Y T T ",
"x x v f g g g g S S D g S g g f 6   9 v v X 7 L L > > E ! 2   k ~ ~ ~ ~ ( ] ( ( ' ' T T T ' Y Y T T ",
"x x v x v v x g S D D g g g v g t   ; v a   y L G 8 . H Q # . R ^ ~ ^ _ ] { { ] [ [ T T T T T T J J ",
"v v v v v v F v F g v g g v v g f X + g 0   x G G y   y x   > ^ ^ ^ ^ _ ] } } } } [ [ ' T T T T T T ",
"v v v b b G G G G F F v g g g g g -   a - & G G L v   8 r   0 ~ ^ ^ ^ ) ] } } } } } [ ' T ' T T T T ",
"v b b G G L G G G G G v g v g g f 5   9 o 3 G L R L * > 3   j W ~ ^ ) ( ( ' [ [ [ } } [ [ T T T T T ",
"v G L R L L R L L L b v v v g g g e   %   e G G G R 7 X $ . G I ~ ~ ^ ( ( ( ' [ [ [ } } | T Y Y T ' ",
"b G L L G G G L L L G G v v g g g f .     a F G G G y     > W W ~ ~ ) ) ) ] [ [ | |  .[ | | Y Y Y [ ",
"L G G G G G G G G b L b G F F D D S =   @ D F G G G x     8 W W ~ ^ ) ) ( [ [ [ [ |  .} [ [ [ [ | ..",
"b G G N G G G b b b b b G G F D g D D D D F G G G G G G G L W W ~ ) ) ) [ [ [ [ [ }  . . . .[ | | | ",
"b v b b R R R R V b b b v b G F D D F F G G G G G G G G L W W ^ ` { { { } } } }  . . . . . . . .| | ",
"v v v b b L R V V V M b b b G G F F F F G G G G G G G G I ^ ^ ` } { { } } }  . . . . .X. . . . .| | ",
"v v v b b b b b b V V b b b L G G F G G G G K G G G G I I ^ ) ` { { { } } } X.X. .X. .X.X. . . .X. .",
"v v v b b b b b b b b b b G G L L G G G G G G I P G P P I ) ^ { { { } } } O.+.+. . . . .X.X.X.X.+.X.",
"v v v v b b b b G G b b b b G L L L L G G F G I I I I I Y ) ] } } o.o.o.o.+.+.+.+. . . . .X.X.+.+.+.",
"v v v b b b b b b G L b G L R L L L L I G F G P I I U ( ( ] } :.o.O.O.+.+.+.+.@.+.X. .+.X.X.X.+.+.+.",
"b v b b b b b L G G G G G G G L L L I W I P P I I I ( ( ) { } $.2.} O.O.+.@.+.+.X.X.+.+.X.X.X.X.X.X.",
"b b b b b G b G G L G G G G G L L L W ^ ~ I I I ( ( ) ] ] } } } 1.}  .+.+.+.@.+. . .X.X.X.X.+.+.+.+.",
"G N V b b b G G G L L G G K K L I ~ ~ ^ ^ ~ ~ ( ) { { } } } }  .+.+.+.+.@.@.@.@.+. .X.+.+.+.+.+.#.#.",
"Z V V G G R R G G L L K I L L R ~ ^ ^ ` ) ) ] { { } } } } O.+.+.+.+.@.@.@.@.@.+.+.+.X.+.+.+.+.+.#.#.",
"R R L L L R Q L L I I L I I I ~ ` ` ` ` { { { } } } } O.O.+.+.+.@.@.@.@.%.@.@.+.+.@.+.+.+.%.*.*.&.&.",
"E R R R R ! / R L I I I I I W ~ ^ ^ ] { { } { { } } o.+.+.@.@.+.@.@.@.@.%.@.@.@.@.@.@.@.%.*.*.*.*.*.",
"R R E E ! ! ! ! ^ ~ I I I I I ~ ^ ^ ] { } } } } o.O.O.+.@.@.@.@.@.@.@.%.=.%.@.%.@.@.@.@.%.*.*.;.*.;.",
"L R R ! ! ! ! ^ ^ ^ ~ I I I I ( ) ] ] { } } } O.O.+.+.@.@.@.@.@.@.%.%.=.=.=.%.%.@.@.+.@.*.*.*.;.;.>.",
"L L R ! ! ! ^ ^ ^ ^ ^ ~ I I ( ( ( ( ] [ } }  .+.@.@.@.%.%.%.%.%.%.%.%.=.=.=.=.=.%.%.%.*.*.*.*.>.>.,.",
"G L L Q ^ ^ ^ ` ` ` ] ] ( ( ) ] ] ] } } } } X.+.@.@.@.%.=.=.=.=.=.%.%.=.=.-.=.=.=.=.;.*.*.*.;.>.,.<."
};
