/* XPM */
static char *_6806b28d02c45e99c60822aac0d6975bR9dz4huCH48iGs6[] = {
/* columns rows colors chars-per-pixel */
"64 64 63 1 ",
"  c #82552F",
". c #8E5C35",
"X c #895933",
"o c #A0683D",
"O c #925E36",
"+ c #956037",
"@ c #986239",
"# c #9B643A",
"$ c #9D663B",
"% c #865731",
"& c #A36A3E",
"* c #9C6333",
"= c #A86D41",
"- c #794F2C",
"; c #AB703A",
": c #7E522E",
"> c #966031",
", c #A66D3B",
"< c #996234",
"1 c #975E2A",
"2 c #A36A38",
"3 c #9C612C",
"4 c #87572B",
"5 c #734B29",
"6 c #8E5B2F",
"7 c #925E30",
"8 c #A06839",
"9 c #AA7233",
"0 c #905A27",
"q c #A16833",
"w c #52351C",
"e c #4C3018",
"r c #AE7142",
"t c #9D6637",
"y c #7E5129",
"u c #A56C36",
"i c #6B4526",
"p c #9C6730",
"a c #995E24",
"s c #362212",
"d c #A36B2D",
"f c #422B17",
"g c #B2743C",
"h c #B77645",
"j c #9C5E1D",
"k c #A8702D",
"l c #FCAB63",
"z c #875522",
"x c #634022",
"c c #583B1C",
"v c #AC7627",
"b c #B17830",
"n c #72471C",
"m c #7C5023",
"M c #BD7C3D",
"N c #8A5D21",
"B c #FFB85C",
"V c #C58148",
"C c #C4852E",
"Z c #7A4A1B",
"A c #B16C28",
"S c #23160C",
"D c #E99A50",
/* pixels */
"BBBBBBlllllllllBlllDllBBllBBBBllDDllBBllBBBBBllBlDllllllllDllBBl",
"VMMMMMMVVVhhMVVr5oVMhhhhgggghhr@x.hhhhgggghhMMVr5@hMVVVVVVMhhMh+",
"0esssssssssssfssSsfssssssssssssSSSsssssssssssssSSSssfffffssssssS",
">ynixxnniin---mxfiy--5555iiiiixcfnzm--5iiiiixnxwsx:5-mymmmyym-5c",
"uAjaj>116% XX%%5e%=oo2&*33jj3qt4cN999;&$3ja1+>05f5X%%XX7#o&,u9pm",
"61a1aaja04 :  -xf-@. ::: 40a$ukNcy8$8#O%%007a04if5 : ::%O+. : -x",
"OO..O7733a1qdk>mw%27%:-:   6#$p4c7,###.%4.+>16%Zez$tkdqoo#7% :-x",
"b;#>11.O#**89bt4c>g;;=ooop7@*qp c1g;;r;2$#>11>.yw%&&9u;rbbbg=,q ",
"brq*tq<<a3<##2@:w.r=grr==,2#$2+yw6;,&&q&o$*tu$+yw%&82o#&,;ghh=<-",
"rhr2&&t8*@tt3*> w.g;rrr==&=2&&>me%2t$##$oo8&&&8 wX=$$$2,=;;;==@-",
"rh=&=r,9&uoo**7-w%u$o,;,,,=;;;8 w4qO+113#$2=;;uXcOr&o*qp@@@#$oO5",
"9u@X$;u,2kkkqt7Zf5%:: XO#$$$$9pmezjaa1a>.X .#*O-w7root<00 --:40m",
"46O@&;,&#akvv27Ze5%---:X.X% 4%:xf5061a04%%XO@@.5e6b,$*aj74-5y4zx",
"q;&2op<@@$uu8*1Ze-@6<@@@@+7X% :if5..O6611<$$88@:w.r2*aa6% z0664i",
"gg&$uv9;=u2#<#+ye%=$,&&=;9bg=284w $>111>@*#89vq4c>go2kdooo***<.5",
"=,t+@tt#@@<*##Oye%&*qo$&&,=rr=@:w%q*tq<<a31@#d@-wX,o&,8$$$$#@$O5",
"<37X%.X.6O.OO.X-e @ja>q&o&====@:wXr$oo<#<+>+1+.-w $OO++..X%X6. x",
"#*0 %% %%X.>##@:wX&t@+*+++O@#$Oyw.=&&=,,88#+>7%5e->.+++++O<++@0i",
"OX--:   %..<8$>:wX=$*$>04:-5-41zw:@X#,2&88o#>3X5e-6%4X.++@p<<Ozi",
"+@%%4X4yy%O+@#.5e%,&o$3j0 -5y4znfiO@=9;&#1u9&$7Zey6:-y:   %X0. x",
"o=#+@7.113####Oyw7b9ot37X z00X4ie4,22qp@$d9ku$OZe-+67>>7@##<*8+n",
"hMb9,u8*t$p$o&# w7,tqkq#o$3**#OmwX,$2k9,;v92tqpywX=**##*$o82dq#-",
"CCd2&oq3*11.O+.5e *>#tt*oo$##$O-w:31>tq$p*<3t8+:w%o+31+..Oaj#8ty",
"MA2&,&#76 yz44:xf5.% XXX.%  %. ifZ.  X6.00XX.X if564  : 40ja#udN",
"CM;8o&@XXXX6X:5xf5.X.OOO+O+O7>05e50 :   : %67.X5e:t+.X4X%%%6<#>y",
"hM,,8o@O.%%%% :ie:@+O>OOO<ppp>zifiy-:::: .pap+.5e:$@@t+O..X.+@+-",
";;q@<@+++OO..O ie:7X%  : %%X6X:if-.X%%%  4X4X%:if5..+@+>+@++@#O5",
"u;2##@1>#@tqt#O-wNo@3p@+$$$@t$+me%$tp>+767p@@p>-e%=$$2&&$*o#td7n",
";;2*<@##o,9;9u+:w0u#$#*38oo2kd@:wab999u*#2d*#3O-eX=o2ku,,,999;8-",
"uAj3*8&2@@po&2>-ez>X700z4.718kdNcNku&=udt<a6X70Zf5O61*8&,9dqu9t-",
"73j$uvvd38;;r&.ifi00z-5-4ajakvvNcz;;rr=+Xyyz0z5cf5aja8,bvu>@ooOi",
"O+>t8k9v9,,,=# 5e k1 -5: z018udNc>g,==#X.7<d> 5xf5001$2kvv,2ooOi",
"#$$ouq&,;,;;r=@ w &t$$###+O@odp%c>g;;r=o&o@#t$@:w%$O@ouu,,;,;,$-",
"$=$#$#*<**$$2q# wX&,=r=rr,u#o2>ywNu2qdq&==$#,=&%c+gu#$o#*<**t*.i",
"2r&$q<*3>a@<@<>yw%9=rhhrr==88d1me4d*<@<*t#td=r=Oc+r=82q33*#*##On",
"hCb9;;&#<<771a0-w0g==ghb;9r;;98 w qO7611<@d;=;9.c1gr;,,&o##**<.5",
"Cbuu9,o#3aa1O70if5X% XX6@$&&29pmezj1j>116% %X% ie &$$8o*31ja3ppy",
"Mut$8#O%%007a04if5 : ::%O+. : -xfZa1aaja04 :  -xf-@. ::: 40a$ukN",
"CMu###.%4.+>16%Zez$tkdqoo#7% :-if5..O7733a1qdk>mw%27%:-:   6#$py",
"hCg;;r;2$#>11>.yw%&&9u;rbbbg=,q4c #>11.O#**89bt4c>g;;=ooop7@*qp:",
";g=,&&q&o$*tu$+yw%&82o#&,;ghh=<yw%q*tq<<a3<##2@:w.r=grr==,2#$2+5",
"k;2t$##$oo8&&&8 wX=$$$2,=;;;==#:w.r2&&t8*@tt3*> w.g;rrr==&=2&&75",
";;qO+113#$2=;;uXcOr&o*qp@@@#$8Oyw.r&=r,9&uoo**7-w%u$o,;,,,=;;;8-",
"uAjaa1a>.X .#*O-w7root<00 --:41zw:@X$;u,2kkkqt7Zf5%:: XO#$$$$9pm",
"67061a04%%XO@@.5e6b,$*aj74-5y4znfiO@&;,&#akvv27Ze5%---:X.X% 4%-x",
"OO..O6611<$$88@:w.r2*aa6% z0664ie &2op<@@$uu8*1Ze-@6<@@@@+7X% -x",
"g=$>111>@*#89vq4c>go2kdooo***<OmwX=$uv9;=u2#<#+ye%=$,&&=;9bg=2q ",
"brq*tq<<a31@#d@-wX,o&,8$$$$#@$O-w:t+@tt#@@<*##Oye%&*qo$&&,=rr=@-",
"rhr$oo<#<+>+1+.-w $OO++..X%X6.%ifZ7X%.X.6O.OO.X-e @ja>q&o&====@-",
"rh=&&=,,88#+>7%5e->.+++++O<++@15e50 %% %%X.>##@:wX&t@+*+++O@#$O5",
"9u@X#,2&88o#>3X5e-6%4X.++@p<<Ozifiy-:   %..<8$>:wX=$*$>04:-5-40m",
"46O@=9;&#1u9&$7Zey6:-y:   %X0. if5X%4X4yy%O+@#.5e%,&o$3j0 -5y4zx",
"q;,u2qp@$d9ku$OZe-+67>>7@##<*8+me #+@7.113####Oyw7b9ot37X z00X4i",
"gg&$2k9,;v92tqpywX=**##*$o82dqt:w7b9,u8*t$p$o&# w7,tqkq#o$3**#O5",
"=,31>tq$p*<3t8+:w%o+31+..Oaj#8t4cNk2&oq3*11.O+.5e *>#tt*oo$##$O5",
"<3.  X6.00XX.X if564  : 40ja#2kNcz2&,&#76 yz44:xf5.% XXX.%  %. x",
"#<0 :   : %67.X5e:t+.X4X%%%6<#<4c7;8o&@XXXX6X:5xf5.X.OOO+O+O7>0i",
"OXy-:::: .pap+.5e:$@@t+O..X.+@< c7;,8o@O.%%%% :ie:@+O>OOO<ppp>zx",
"+@.X%%%  4X4X%:if5..+@+>+@++@#Oye%q@<@+++OO..O ie:7X%  : %%X6X:x",
"or$tp>+767p@@p>-e%=$$2&&$*o#td7me42##@1>#@tqt#O-wNo@3p@+$$$@t$+n",
"hCb999u*#2d*#3O-eX=o2ku,,,999;8 w42*+@##o,9;9u+:w02#$#*38oo2kd@-",
"CCA;=r;d8*37.>0Ze-+73q&,;9ku9g2 wzd3q,,,t#q&=,*:wzp.>1az4O>3u9dz",
"DCVVVVVrt763d365w0AAAhMCCM;rhhrXwaAhMCCMAhVVVh&%w dda6%X*AAACCCv",
"DM% XX-iinmmZxccfxZnZ: NNN y::-5eim-:NNN4  4X-i5w-znxccxinnZy Nz"
};
