/* XPM */
static char *_3aa329e227045f6bb3fb2c61afc87e1Hw1l8VEqosQopoWO[] = {
/* columns rows colors chars-per-pixel */
"50 50 256 2 ",
"   c black",
".  c #A1A19A",
"X  c #C4BEB6",
"o  c #030200",
"O  c #110A06",
"+  c #C3BCB5",
"@  c #A46D6A",
"#  c #C2BBB4",
"$  c #0A0702",
"%  c #C2C2C4",
"&  c #060401",
"*  c #140C08",
"=  c #0E0702",
"-  c #9F645A",
";  c #23150D",
":  c #170D05",
">  c #9C624D",
",  c #9E624F",
"<  c #A36656",
"1  c #2E1510",
"2  c #130602",
"3  c #AA726E",
"4  c #C5C5C5",
"5  c #A4A29E",
"6  c #B7706E",
"7  c #1C110C",
"8  c #522620",
"9  c #A16A67",
"0  c #BDBEC0",
"q  c #A16454",
"w  c #65312E",
"e  c #291A15",
"r  c #C9C8C2",
"t  c #9F6862",
"y  c #311617",
"u  c #1F140D",
"i  c #5B2A27",
"p  c #965453",
"a  c #745890",
"s  c #C0B9B2",
"d  c #A16450",
"f  c #B7BABB",
"g  c #533030",
"h  c #AF6561",
"j  c #A7A4A1",
"k  c #66528B",
"l  c #BD7A78",
"z  c #35191C",
"x  c #873D40",
"c  c #4A1B1D",
"v  c #482623",
"b  c #BEC0C2",
"n  c #5E446C",
"m  c #A7726C",
"M  c #9E9D99",
"N  c #3D201D",
"B  c #291410",
"V  c #A3685D",
"C  c #612F2C",
"Z  c #B87676",
"A  c #1D0906",
"S  c #AFABA6",
"D  c #8A8783",
"F  c #230D0B",
"G  c #6B3331",
"H  c #874F47",
"J  c #7B423D",
"K  c #361711",
"L  c #411917",
"P  c #733C37",
"I  c #80473E",
"U  c #3E2521",
"Y  c #180F0A",
"T  c #754038",
"R  c #986664",
"E  c #989692",
"W  c #915D4D",
"Q  c #5F2D29",
"!  c #311E15",
"~  c #6D3832",
"^  c #47201B",
"/  c #73465A",
"(  c #7E4948",
")  c #643F55",
"_  c #BAB3AC",
"`  c #B06967",
"'  c #8A5B5D",
"]  c #3B332C",
"[  c #66362C",
"{  c #423730",
"}  c #312924",
"|  c #4D2323",
" . c #965B52",
".. c #8F5448",
"X. c #342322",
"o. c #6B4049",
"O. c #694A80",
"+. c #3E3C3A",
"@. c #918986",
"#. c #371B16",
"$. c #7C7572",
"%. c #5E3635",
"&. c #948F89",
"*. c #432120",
"=. c #463A38",
"-. c #623C32",
";. c #844B41",
":. c #392C29",
">. c #5D4D8F",
",. c #311C2C",
"<. c #905E5F",
"1. c #88504F",
"2. c #5A3028",
"3. c #7F5673",
"4. c #6C3D3D",
"5. c #6D3F36",
"6. c #894744",
"7. c #BEB6AE",
"8. c #764D3D",
"9. c #58524A",
"0. c #B1B3B4",
"q. c #524A44",
"w. c #C6BFB7",
"e. c #240F12",
"r. c #9A8E8E",
"t. c #3F1F17",
"y. c #716B66",
"u. c #2C161D",
"i. c #86827C",
"p. c #9B6059",
"a. c #98615F",
"s. c #6D5A99",
"d. c #905450",
"f. c #411E27",
"g. c #A4A4A5",
"h. c #7B5050",
"j. c #603B3C",
"k. c #A16B6B",
"l. c #825343",
"z. c #4D433E",
"x. c #ABA8A3",
"c. c #885747",
"v. c #9E5D4C",
"b. c #1E1B1A",
"n. c #7B3739",
"m. c #724948",
"M. c #352920",
"N. c #130F10",
"B. c #231710",
"V. c #342239",
"C. c #805554",
"Z. c #A96563",
"A. c #AB6E6C",
"S. c #6A5774",
"D. c #743536",
"F. c #615F5B",
"G. c #59477A",
"H. c #56313E",
"J. c #63353C",
"K. c #2A292B",
"L. c #C7C0B8",
"P. c #7C4F40",
"I. c #B66A67",
"U. c #837C76",
"Y. c #4A312E",
"T. c #502F28",
"R. c #1B0F19",
"E. c #3C3053",
"W. c #655694",
"Q. c #543A36",
"!. c #70453A",
"~. c #BFBCB8",
"^. c #A59994",
"/. c #A15D5A",
"(. c #7F5F93",
"). c #554D9C",
"_. c #633A46",
"`. c #7A5360",
"'. c #CCC5B9",
"]. c #ACA599",
"[. c #42449C",
"{. c #946771",
"}. c #885456",
"|. c #754246",
" X c #BAB9B6",
".X c #8F716D",
"XX c #2B241F",
"oX c #432A28",
"OX c #D5CDC4",
"+X c #9C6C6B",
"@X c #9B5757",
"#X c #554A8A",
"$X c #534174",
"%X c #5554A4",
"&X c #744E5F",
"*X c #694C4D",
"=X c #B1756E",
"-X c #AA7265",
";X c #61497B",
":X c #391923",
">X c #735786",
",X c #694866",
"<X c #69445D",
"1X c #4F3F83",
"2X c #8F5957",
"3X c #C2C0BE",
"4X c #51504E",
"5X c #907C79",
"6X c #8F8E90",
"7X c #4F55B1",
"8X c #ABADAD",
"9X c #A17D76",
"0X c #472A23",
"qX c #3A4CA8",
"wX c #8E4947",
"eX c #4F354A",
"rX c #AB9E9A",
"tX c #A46161",
"yX c #7C6788",
"uX c #4E3A5D",
"iX c #654545",
"pX c #B47F74",
"aX c #8B6A87",
"sX c #6A4C72",
"dX c #634262",
"fX c #744F77",
"gX c #473D8C",
"hX c #643335",
"jX c #976456",
"kX c #D4BF5B",
"lX c #B7B0A8",
"zX c #867399",
"xX c #4A4B48",
"cX c #CDCDCF",
"vX c #6B5D5B",
"bX c #C0AEA6",
"nX c #45355C",
"mX c #855A7F",
"MX c #A07B83",
"NX c #343E91",
"BX c #483579",
"VX c #A57062",
"CX c #3F2E42",
"ZX c #432538",
"AX c #885468",
"SX c #6F4E89",
"DX c #512A37",
"FX c #593C42",
"GX c #C7BFA0",
"HX c #C4B980",
"JX c #AEA37B",
"KX c #BBAD6A",
"LX c #D7D7D9",
"PX c #786464",
"IX c #43335B",
"UX c #CBB556",
/* pixels */
"                                                                                                    ",
"                                                                                                    ",
"                                                                                                    ",
"                                                                                                    ",
"f f f f f f  X3X X. . . . . . . . . . . . . . . . . . . . . . . 5 5 5 5 5 5 5 5 5 j x.x.S S S X OXOX",
"0 0 f f 0.0.8Xx.x.D $.y.y.$.i.D @.&.E E E M M M M M M M M M E E &.D D @.i.i.i.D &.&.@.. S S S '.OXOX",
"0 0 0 f 8Xg.$.9.q.{ M.e e XXM.M.:.] ] =.z.q.q.9.9.9.9.9.q.z.=.{ { ] :.} } { { ] ] } } F.D &.&.]._ '.",
"b 0 f g.D F.} ! ! ! ; : : : O : : 7 u u u ; ; B.B.B.B.B.B.B.B.u B.B.u 7 Y O $ $ = O u M.M.} } { F.^.",
"% 0 8Xy.+.N.* : 7 u : = $ & o & & $ = O * * * * Y Y Y * * * * * * O $ $ o & & o o & O ! ! : * B.] U.",
"cX0 6X+.N.& $ * F B B ; u Y = & & & & $ $ $ $ $ $ $ $ $ $ $ $ $ = = O : Y 7 B.; 7 O $ : ; * O : XXi.",
"LXb U.=.= o = F t.8 [ J ;.P.!.-.T.0XU ! e ; 7 Y Y Y Y 7 u ; e ! U T.-.!.8.l.c.c.T ^ A = O $ $ * z.S ",
"cX% D ] Y = = t.[ ~ I ..v.v., > > W W W c.l.P.8.8.8.8.8.P.l.c.W W > , > > d d d v.T K $ $ $ $ u U.L.",
"4 % E X.; Y 2 8 .. ., < q v.v., d d , > > > > > > > > > > > , d d d d d < < < < q ..8 2 & $ $ :.x.L.",
"% b g.} ; ; 2 ^ ..V -X-XV , v., q < d d , , , , , , , , , , d q < < < < q q q jXjXW 5.A & = * vX+ X ",
"b 0 0.q.B.; : K I t h.j.-.-.P.W p.- < q q q q q q q q q q < < V V V V - - W ~ ^ N 0X5.F o = XX^.L.X ",
"b b 0 $.e : 2 B ~ 2X0Xy z U v C T 1. .p.- - - - - - - - - - - - t t t p.1.hXv U U ! 2.F o O q.7.X + ",
"% % % M } $ & A i ( g &X`.*XiXo.4.( 1.a.t t t t t t t t 9 9 9 @ @ 9 t 1.4.J.iX*Xh.Q.0X7 $ e i.X X ~.",
"% % % 0.+.$ o 2 L J o.{.{.' ' <.<.' a.R t t 9 9 9 9 9 @ @ @ m 3 3 A.9 2X|.j.H.j.FXU B.* * =.lXw.X ~.",
"4 % % 0 F.$ o = K P C.+XR ' C.}.<.R +X@ @ m m m m m m m m 3 3 3 3 @ R |.DXH.) 3.aX=.* O 7 9.7.X + # ",
"4 4 % % i.O   $ F ~ 2X{.h.J.%.J.h.' a.9 @ m 3 3 3 3 3 3 3 3 3 A.@ R o.DXdX,XdXn fX=.O * u y.X X # # ",
"r 4 % % M b.  & A [ }.o.| c *.:Xf.J.( d.a.9 @ @ @ @ @ @ @ m @ k.R o.ZXn ;Xn n n sX:.O * e U.w.X # s ",
"r 4 4 % 0.K.  & 2 2.m.f.H.J.J.H.V.z | 4.( <.R 9 k.k.k.k.k.+X' h.j.,.uXa k O.>XO.,XX.* Y X.&.w.+ # # ",
"r r 4 % f +.  o 2 | 4.:X) o._.) S.CXy | 4.m.h.C.' ' ' C.m.j.v y e.V.;Xs.k a a O.<XX.Y 7 :.^.w.+ # # ",
"r r 4 % 0 xX  o = *.j.f./ / _.) yXn u.z T.g g g g g g v *.#.F 2 R.E.k s.k a a O.) X.Y 7 { ].w.+ # # ",
"r r 4 % b 4X  o = N j.f./ / o.) yXS.,.z *.v *.N N N N N :Xy A 2 R.nXk s.k a a O.) X.Y 7 =.].w.+ # # ",
"r r 4 % 0 4X  o = *.%.f./ / o.) yXS.,.z *.N #.y y y y z z 1 A 2 R.IXk s.k a a O.) X.Y 7 { ].w.+ # # ",
"r r 4 % 0 xX  o = v g f.`./ o.) zXS.,.u.1 F A A F e.e.e u.B A = R.E.k W.k a a O.<X:.7 7 { rXw.+ # # ",
"r r 4 % f +.  & 2 0Xf.H.3.&X/ dXzXS.V.u.e.2 2 A F F e.B u.u.u $ N.E.W.>.>.k a O.,XY.e Y ] E L.+ # # ",
"'.r 4 % 0.K.  & 2 z :X&X3.3.3.n ;Xn CX,.e.A e.y z z z y y y B : N.E.W.W.>.W.s.k ,XFX:.* M.@.L.+ # # ",
"GX'.% % g.b.  & O b.eXmX3.mXfX$X$X$XuX,.u.oXg g %.%.%.%.4.m.m.j.X.V.#X>.).%X).>.sX*XQ.Y X.U.X X # s ",
"HXGX3X% 6XN.  & N.K.S.(.(.a >.1X1XG.n V.y | [ J H H H d.p.@ A.@ h.V.$X#X).7XqX#XG.`.m.B e y.# + # s ",
"kXHX~.% $.& o $ R.E.(.s.%X[.[.gXBXG.n ,.L J /.h h h h ` ` h h h /._.nX>.).7XqX%XG.`.C.U B.y.s + # s ",
"kXKX Xb F.& $ O ,.n a ).7XqX[.gXBX;XuX:X|.tXh ` ` ` ` I.6 6 I.h h @XeXG.>.[.NXNXk 3.' -.! $.s X # s ",
"kXJXf b y.7 2 1 _.>Xa s.%X[.gX#XSXn ZX4.a.Z.` 6 6 6 6 6 Z Z 6 I.h h 1.eXsX;X1X1X>XaXR }.-..X# X # s ",
"UX].0 b D U 1 2.`.aX(.(.SXO.fX3.<XH.( tXA.Z Z l l l l l l l l 6 I.I.Z.( _./ / <X&X{.R R d.9XX + # s ",
"KXS b b ^.|.2.( <.MX{.AXAX' }.|.hX1.A.6 Z Z Z Z Z Z Z Z l l l 6 6 6 6 Z.1.4.( 1.}.R R @ jX9XX X # s ",
"JX X4 3XrXH ~  .a.@ @ 2X( P hXG p /.@Xp p p p p p p p @X/.tXZ.Z.Z.` 6 6 Z.p T P J ( a.pXVX+X# X # s ",
"lX3X~._ r.T I - =X9 d.J D.D.n.6.6.D.G G G w Q Q i i i C w ~ T J I ;.d.d.6.d.wX6...p.=XpX-Xm 7.X + s ",
"x.g.j 5 MX/. .V =XA.p n.D.P i | L K K L L L c c c | c c c c ^ c | 8 8 8 | 8 ~ I I ..V -XVXpXbXX # s ",
"5 5 j 5 ^.=X .- V ;.8 L ^ ^ L | i w D.n.x x x x x x x x x x x n.n.D.G C 8 ^ L ^ 8 8 T q V m bX+ s s ",
"5 j j j rXC.%.-  .2.1 8 P 6.p @Xp wXJ D.G w Q i Q i i i Q Q Q C w G n.x 6.wX6.I w K L l.q .XlX+ # s ",
"5 5 j j E ] T. ...T 8 [ ..p.p.p H I P G w C C C C C C C Q i i 8 8 ^ ^ 8 Q T 6. . .T 8 P.W 9X_ # s 7.",
"j j 5 D F.b.N ;...c.!.5.J ;.I J P P P ~ G w w w w w w w w G ~ P J J T 5.[ P ;.;.I ~ [ l.W 5X_ s 7.7.",
"x.j D 4Xb.N.:.!.I !.T.v v t.t.#.K K #.#.K K 1 1 1 1 1 1 1 K t.*.| 2.[ 5.[ C Q 2.2.2.-.8.-.z.S s 7._ ",
"S @.q.+.XXz.z.5.H !.U e e e e y z N U oXoXY.Y.Q.Q.Q.Q.g Y.oXU z y B 1 y 1 B B B 1 ! B ^ 1 b.E s _ _ ",
"S 6X+.K.+.$.=.v ;...c.H H H H 1.<..X.X5X@.@.r.r.r.r.r.r.&.@.5X$.PXvX*XiXQ.Y.0XN t.#.t.t.2 K.E 0._ lX",
"                o                                             o                       o             ",
"                                                                                                    ",
"                                                                                                    ",
"                                                                                                    "
};
