/* XPM */
static char *_09c14370ac641b6e5396cdc004b2eeanEgL7OrAbrzsvrX1[] = {
/* columns rows colors chars-per-pixel */
"64 64 41 1 ",
"  c #4F4B45",
". c #4A4540",
"X c #68635A",
"o c #3E3933",
"O c #787468",
"+ c #454039",
"@ c #837E73",
"# c #625D52",
"$ c #544F49",
"% c #48433C",
"& c #585348",
"* c #746F62",
"= c #878277",
"- c #413D37",
"; c #5B574D",
": c #706C62",
"> c #4D493F",
", c #534E43",
"< c #666155",
"1 c #817C6E",
"2 c #7C786E",
"3 c #5E5954",
"4 c #635E58",
"5 c #6C675F",
"6 c #757066",
"7 c #37332E",
"8 c #58534D",
"9 c #6C675A",
"0 c #8D887D",
"q c #8C8677",
"w c #979284",
"e c #A19C90",
"r c #5F5A4E",
"t c #6F6B5D",
"y c #7C7769",
"u c #938E80",
"i c #9C9789",
"p c #AAA498",
"a c #2C2825",
"s c #B6B1A3",
"d c #C5BFB1",
/* pixels */
";&+*@Ot@154;-> 4X; .4&,; 3r6#>.-.5@r&>&@=*tu=O:;r& 3$r%%&,o7 3:;",
"$ .2:5*9<3;.:04%+& $6<;;8-:e@yX:6$3&+o#3X*OyO: +t;#X,% =@XrtO;3;",
".-$$%$X#&.-Xi0q19&+@ew0pw#wspee63 >>%38%.r&;r%o6seuw644pwiei@$8,",
"@=wi2O@@2O44==6w0*.:5X1t<$@siu1X 3pe0ew0O:;X5X>:=69& o =qwuO5 2w",
"2yiu=w01OOX-26ytt& 4;>;r -Oit*2y$*e@1=u1*06r#;$>8+%>778uu11q4$@q",
"X@*yyO@025.8O69&#r8$ >>--.=@tO2*&9eq@16O*X<;,+%8.>--o-:w=@t6830y",
"w@5O*@@=6$$3;&>&r&%0pi0q23y1ytyX8Xu@:<t:5##&++$e02:@6.X1<*6t48@2",
"@6:<6:t2*<,ue1*@1trqe0w=2%y*9@21 5=XrX4r;#>o%o81Or<rX 8OX5&;; O:",
"; $8;,9y*r$pwqisw@6,q1*t6%*9*1O*  $&> 8 -+,>+78<&#>&<o 4:XX<3$$<",
"*X,4243,;$%6:*==X#5+X:;:,,*<884 -4:o;*r#8>o7o+9,<#<#>ao.. $8% 2:",
"ei<esspw@105 %&;&>>*:$o,:t%-- -o7X08=p16=1t3%8t,$ .>%-..+-%%+%ue",
"5X9seq1uwupi44O5&&edde12ii064X48$#;.@w@6<#:3+.#+7777o 5643:8$X;%",
"880wu1ryOq119wsi6Osiipp0,9*=dddsseqX8*#&$#& -.++o+8:@=;>eppspsp*",
"3:5<#4.$$8#r-Oy6X8=q=wie=5-udspppi=6$%>.%o-->244.3iu=1X<se0euwei",
"82i@*55 .&#9Oq1:.8:01qi0=@::euiu16<  2OOX3. @55+%=yr:@5 OyOip@@O",
"$pspppe*Xspwpsds0553@26#6#+%O01t#XX><sw0=2@;#;o ==::9qX+r6yO=1y:",
"3i=wuqq2<yq1@0qqt;s@+3$8>%yw<,r,%%$-Xutqu123-o32@4X99X9e2,X4&>r%",
"X22uq*653>*O*584o:dsw;%-%isi0X+$>$@3X65O@*98 46$43$,+tsdd=$51>==",
" ;X;5tX,%#;,$> %+ppeiw*3uey@i0;3O 388:4 8,>+%3 %+%-73sepii@X0#:O",
"r$-oo&&rqe0w=X 4eey=qq*32=yqO#>$%o;;#%%o%;#tuu2@0=9X5pwi=@&$O%&<",
"pw=8=eieeiwew280e@quq*#%O@O@#>%%;@iiiu3;iei=ui2uuq=OXu0001$ 31ps",
"=q0#peuq20w0y:346t9y<#r.5XO;#..0ewOO@@4:pe0@@@qiy1O $4<224%@pieu",
"@=@&=*6t*Oy*9#+$:rr#59;%-;#,>o4w=t6*t986=11ququO** +. <;3  pi0q=",
"q1: 8>;::<t&%7784;,,<,>%#,+%7a;@O#t2#3%$X<tt**5r&,+.O.%3%a$e=y21",
"115>.,%&+..7- 48 --.-o78w<oo7-83#:Ot&$$+--%%->-o+2@4pey&>+5i@@qO",
"X&%XuryO126833=0:%-7aa-3&r3$22$%-&;>7-+O5&@1@@@;OeO#=esssw4X;r<X",
"5<,wwOsewiO=3Xei=9,-8;5O,--8@4 5t<9## ;04qiwew02#y6$O:@w=O3XyXXt",
"0@5:$#w112#<#;:,$,,#weewu*38$+.:ew=*55 $7109=0O8. $o3;$ &>-#0=qi",
"#>. oqi@22O6*r>X8 %4u0=t19;$*61489%%%-%-+=1;OyX.$4>$;.++,O0:$X&,",
"uiwX uw=:59O5,2dpu63@29<9#+6eip1:piuwi6840*O*t;+8eepsu#:wwuw4piw",
"iee@8=:<<99:*+qw@t4%4$o$r&+4*X<,Oseieu@$ 8;X48+7,weeiy#3O<&3;spe",
"wqi=>.+%>r<8.o1=X%%.+777o7+$5#+-u0qiw9;,77o-+77a%yy*&&;$#tX%:piw",
"u=uO:p@X.++o-%9#r,+ #$-o+-$pwi=&0qOq1t8,2u23%77- 4$$ +-=pps5upew",
"=@=90dppp0X$3$XX,>%$e@;4.4ww1O:.5699<98 pspse0=653r;>-2speu#qiu0",
"6:OXtwueq=2:4++%-oa>04 +5X:1@9,%+%&<r.%-uw=qiew=X6eiw2<==qqX#11@",
".+- i1yOO<O9-87aaaa.X3+3q*+X6;o. 77o-o7Xu1=uuqq9.5==q0#&@1O838%%",
"O< upyq@2X9%..44oo%$$$ %,98 3%o.Oi==y$4u@Ouu=q<X.3yy*y< :r>o4u22",
"ew90u=qO*@<>.%=@@1 +oao o3$%$oo%eseiu<401@y@1y98 $O:&,o-$ -a*pei",
"@0,%#<6#<#&$ 829X#4.a77o.>-..+%$85=*OX 6**<XX::8%+%+,>o&,+>%.tqq",
"@O$ $&5##>>>$$:6&,8%483002:O02*13X@**O ;9#8<#;8+%0<w0=2quu024>yq",
"1OX%$; $ --o7+#5#& -X8#u26@65yO58 2r&<8+& %%-7a72u#q0=09Ou*&$$@q",
"1yr;y6*X>%-aa%<>;X$7>$or#rXX$::$>3@33 +20O:$.oo 9r-rr&<9:;>#% 0q",
"#<-y1tq6X5#%7-,r<,-- -+ +$34<,%7-XO; o$w2y*O2X %%++ %+>&++,%o3w1",
"#%7r#r<5#, -r6,o,%-->% %o-8=*r&56> --74O#9<##,o..o$$+o.tt<ry=36#",
"+- -7-%%,.7>qu=:>77@u0=01,2piwiw4 -oo+ ++#r-77-;@00@6$<euwqiO$.+",
"=16*9:y#r9&t0=O09r$i06:O5&5u=@=O3$e0@0=1*9<4&-.4*y9;#8;qqyqt&-r1",
"qq@=quu@1*9&19;y9r.8X;;$ -4q1=19 #iiwquw=*9O:>o3$%+$%7,**yqr#%qu",
"t*t**y*yt#% &>,&#+ %o++o7+22XO:6 #O@1699<t##;+o$+7o%7731y*9r;$@y",
"*O&t1<<y*,  +%+-77.@y955X$:2<r:: 8:##2*9<$$4$a @6O24;5;@*#rt,>yy",
"99<r<9rtrr 4 ++3 $34#*55X 43564.o &&&&&&;%.8-a.5#:O<*,>9r>##>&q<",
",,&&>&X<<#,0@&6i0O4o,8$ -o$4X#54-+$+7-+ >  +oa777%,&<o-%,&;;%-;>",
",>+-%>o%>+$tX+y06;>o%oo7oa7- $$.733-%--+..-7aa.+>&,##&.7.. .a9*>",
"@1OX.3 $,%<@#+=t9r,%+oo>$%7aaa77a+5O@56@O3>>.;%5@6*y69X%a7oa>u1y",
"**;#-7o+3,&t;>6<#X#4i842;$8353$a7$ ,$. +ooo78 o$r&r&,,%+:yto1u*t",
"<t#%#064 %%+7>yyy<>$ir$#-o4u=<5>6ee02X8%==5r,7-%,,%,+o+wpwq&yOyO",
"9<<&9260==O<;3t#O#-+*:.%a%29O; $@=O66544eewwuuw@$%54$7Oqtr#-<t*9",
"<#r>;*#*22O12...--o <,> =5$9O: +8344&%$.220q0eu*$5066X%&6r%-ry#,",
"+oo.@=99O:<6X8-aaaa$X#  =@;<t6$  +++-+o2e*<202t<> tX<r+.$..7$%o+",
"63$2=@9*2O#r4 :5.oa$&>$; 5 ;<%+.5@2O# 5p=*2y@yy9%$1,r>>77oaa%<t5",
"O*#@:*2:=@*;;&u15:3-oo$5 3$> oao:0=y6X421uOtO@t# $6X&,%7aaaa O16",
"<t%4XOO#*9tO9>tOXXO$ %o84X;338 38;*Ot#+699<*@t&;+ .>&,-&r$,8 $XX",
"tX;$6<5X#<9*#%*:&#4$O;6uu60u@@=@8&Oy9X$41tt<r&.7>0#y:<<=qqqO$ Xy",
"9t<.3,%;>o;$,$255#r+O:<@0=@y@:9; &2*<#3.&&>+-o7+=1#6*99<#9r . O6",
"t9>50:65r3>-%-*5##&o<ro&:6*O:#;,-#qO<&>=u22:53+#6,+t*<<;r&&$+.6@"
};
